HIERARCHY
ROOT pelvis
{
	OFFSET 0.000000 0.000000 0.707438
	CHANNELS 6 Xposition Yposition Zposition Xrotation Yrotation Zrotation
	JOINT spine
	{
		OFFSET 0.000000 0.000000 0.000000
		CHANNELS 6 Xposition Yposition Zposition Xrotation Yrotation Zrotation
		JOINT spine.001
		{
			OFFSET 0.000000 -0.013424 0.256146
			CHANNELS 3 Xrotation Yrotation Zrotation
			JOINT neck
			{
				OFFSET 0.000000 0.031259 0.254585
				CHANNELS 6 Xposition Yposition Zposition Xrotation Yrotation Zrotation
				JOINT face
				{
					OFFSET 0.000000 0.003353 0.192079
					CHANNELS 6 Xposition Yposition Zposition Xrotation Yrotation Zrotation
					End Site
					{
						OFFSET 0.000000 -0.028655 -0.007392
					}
				}
			}
			JOINT shoulder.L
			{
				OFFSET 0.000000 0.031259 0.254585
				CHANNELS 6 Xposition Yposition Zposition Yrotation Xrotation Zrotation
				JOINT upper_arm.L
				{
					OFFSET 0.165513 0.000000 0.000000
					CHANNELS 6 Xposition Yposition Zposition Xrotation Yrotation Zrotation
					JOINT forearm.L
					{
						OFFSET 0.256711 0.000110 0.000915
						CHANNELS 6 Xposition Yposition Zposition Xrotation Yrotation Zrotation
						End Site
						{
							OFFSET 0.221087 -0.003758 -0.001259
						}
					}
				}
			}
			JOINT shoulder.R
			{
				OFFSET 0.000000 0.031259 0.254585
				CHANNELS 6 Xposition Yposition Zposition Yrotation Xrotation Zrotation
				JOINT upper_arm.R
				{
					OFFSET -0.165513 0.000000 0.000000
					CHANNELS 6 Xposition Yposition Zposition Xrotation Yrotation Zrotation
					JOINT forearm.R
					{
						OFFSET -0.253497 0.000110 0.000915
						CHANNELS 6 Xposition Yposition Zposition Xrotation Yrotation Zrotation
						End Site
						{
							OFFSET -0.225317 -0.003832 -0.001260
						}
					}
				}
			}
		}
	}
	JOINT pelvis.L
	{
		OFFSET 0.000000 0.000000 0.000000
		CHANNELS 6 Xposition Yposition Zposition Yrotation Xrotation Zrotation
		End Site
		{
			OFFSET 0.101093 0.000000 0.000000
		}
	}
	JOINT pelvis.R
	{
		OFFSET 0.000000 0.000000 0.000000
		CHANNELS 6 Xposition Yposition Zposition Yrotation Xrotation Zrotation
		End Site
		{
			OFFSET -0.101093 0.000000 0.000000
		}
	}
	JOINT thigh.L
	{
		OFFSET 0.101093 0.000000 0.000000
		CHANNELS 6 Xposition Yposition Zposition Xrotation Yrotation Zrotation
		JOINT shin.L
		{
			OFFSET 0.017024 0.000000 -0.324839
			CHANNELS 6 Xposition Yposition Zposition Xrotation Yrotation Zrotation
			JOINT foot.L
			{
				OFFSET 0.016336 0.000000 -0.311709
				CHANNELS 3 Xrotation Yrotation Zrotation
				End Site
				{
					OFFSET 0.013844 -0.141152 -0.059272
				}
			}
			JOINT heel.02.L
			{
				OFFSET 0.016336 0.000000 -0.311709
				CHANNELS 3 Xrotation Yrotation Zrotation
				End Site
				{
					OFFSET -0.075354 0.032899 -0.074061
				}
			}
		}
	}
	JOINT thigh.R
	{
		OFFSET -0.101093 0.000000 0.000000
		CHANNELS 6 Xposition Yposition Zposition Xrotation Yrotation Zrotation
		JOINT shin.R
		{
			OFFSET -0.017711 0.000000 -0.337939
			CHANNELS 6 Xposition Yposition Zposition Xrotation Yrotation Zrotation
			JOINT foot.R
			{
				OFFSET -0.016420 0.000000 -0.313312
				CHANNELS 3 Xrotation Yrotation Zrotation
				End Site
				{
					OFFSET -0.015039 -0.153337 -0.064389
				}
			}
			JOINT heel.02.R
			{
				OFFSET -0.016420 0.000000 -0.313312
				CHANNELS 3 Xrotation Yrotation Zrotation
				End Site
				{
					OFFSET 0.077975 0.032899 -0.059455
				}
			}
		}
	}
}
MOTION
Frames: 10
Frame Time: 0.041667
0.050760 0.007000 0.697361 -0.000000 0.000000 -4.261033 0.000000 0.000000 0.000000 -8.561250 2.807107 0.358706 9.999720 -0.054114 -0.440771 0.000000 0.031259 0.254585 14.130843 -4.737219 1.281576 -0.000000 0.003353 0.192079 -0.243792 -0.000001 -0.000004 0.000000 0.031259 0.254585 -3.070049 0.010094 0.376716 0.165513 0.000000 0.000000 28.989997 73.351642 -38.261849 0.256711 0.000110 0.000915 2.181792 8.955759 -27.283588 0.000000 0.031259 0.254585 -3.020694 0.009772 0.370696 -0.165513 -0.000000 0.000000 14.018931 -75.406969 18.092048 -0.253497 0.000110 0.000915 0.824884 -5.484217 17.109755 0.000000 0.000000 0.000000 2.317515 -0.000000 0.000025 0.000000 0.000000 0.000000 2.317480 -0.000000 -0.000000 0.101010 -0.000000 -0.004088 -1.380160 4.830714 -0.014147 0.017024 0.000000 -0.324839 9.549735 5.231186 0.064527 -5.996892 -9.356122 17.724476 -3.339175 -30.599360 -16.037033 -0.101010 0.000000 0.004088 -2.901059 2.874631 0.224581 -0.017711 0.000000 -0.337939 12.988379 -1.544866 -0.508111 -11.308260 0.383748 1.434484 -5.170359 31.642306 20.733797 
0.051252 0.007633 0.697684 -0.000000 0.000000 -4.454401 0.000000 -0.000000 0.000000 -8.539699 2.758898 0.352014 9.999472 -0.086768 -0.706509 -0.000000 0.031259 0.254585 13.537170 -4.694389 1.372461 0.000000 0.003353 0.192079 0.292881 -0.000000 -0.000002 -0.000000 0.031259 0.254586 -2.935763 0.009232 0.360272 0.165513 -0.000000 -0.000000 28.674029 73.411911 -37.820093 0.256711 0.000110 0.000915 2.355028 9.265654 -28.422239 -0.000000 0.031259 0.254585 -2.886450 0.008924 0.354207 -0.165513 -0.000000 0.000000 12.737259 -75.553900 16.409437 -0.253497 0.000110 0.000915 0.914378 -5.727661 18.169640 -0.000000 -0.000000 0.000000 2.169505 -0.000000 0.000024 -0.000000 -0.000000 0.000000 2.169504 -0.000000 0.000000 0.101021 -0.000000 -0.003827 -1.458351 4.936205 -0.013598 0.017024 0.000000 -0.324839 9.738475 5.027850 0.083201 -6.352777 -9.383742 17.570595 -3.393892 -30.238255 -15.655818 -0.101021 -0.000000 0.003827 -3.051086 2.935593 0.237816 -0.017711 0.000000 -0.337939 13.111304 -1.661203 -0.499606 -11.709459 0.600276 1.105200 -5.028655 31.445351 20.659719 
0.051370 0.008610 0.698229 -0.000000 0.000000 -4.622438 -0.000000 -0.000000 -0.000000 -8.470349 2.725121 0.346027 9.999256 -0.104113 -0.847825 0.000000 0.031259 0.254585 12.971563 -4.638546 1.216399 0.000000 0.003353 0.192079 0.719811 0.000000 -0.000001 0.000000 0.031259 0.254585 -2.818510 0.008509 0.345887 0.165513 0.000000 -0.000000 28.396966 73.418434 -37.462140 0.256711 0.000110 0.000915 2.517032 9.686736 -28.973840 0.000000 0.031259 0.254585 -2.769155 0.008215 0.339834 -0.165513 -0.000000 0.000000 12.728544 -75.617086 16.380095 -0.253497 0.000110 0.000915 0.952360 -5.890560 18.359793 -0.000000 -0.000000 -0.000000 2.022288 -0.000000 0.000016 -0.000000 -0.000000 -0.000000 2.022253 -0.000000 0.000000 0.101030 -0.000000 -0.003567 -1.559949 5.011262 -0.013522 0.017024 -0.000000 -0.324839 9.929067 4.773569 0.107003 -6.710836 -9.381374 17.358936 -3.295432 -29.806488 -15.359808 -0.101030 -0.000000 0.003567 -3.229428 3.002929 0.253614 -0.017711 0.000000 -0.337939 13.184173 -1.811147 -0.485096 -12.095658 0.775772 0.853610 -4.825145 31.142606 20.528207 
0.051271 0.009433 0.698585 -0.000000 0.000000 -4.736167 0.000000 -0.000000 -0.000000 -8.401069 2.691886 0.340152 9.999411 -0.095975 -0.781462 0.000000 0.031259 0.254585 12.411820 -4.588656 0.796903 0.000000 0.003353 0.192079 1.043733 -0.000000 -0.000003 0.000000 0.031259 0.254585 -2.721049 0.007930 0.333931 0.165513 -0.000000 0.000000 28.354135 73.388689 -37.426148 0.256711 0.000110 0.000915 2.623976 10.069876 -28.975390 0.000000 0.031259 0.254585 -2.671695 0.007646 0.327884 -0.165513 -0.000000 0.000000 13.237353 -75.504149 17.063035 -0.253497 0.000110 0.000915 0.987259 -6.149570 18.125357 0.000000 0.000000 0.000000 1.959145 -0.000000 0.000000 0.000000 0.000000 0.000000 1.959111 -0.000000 0.000000 0.101034 -0.000000 -0.003456 -1.541639 5.179732 -0.011087 0.017024 -0.000000 -0.324839 9.886082 4.337734 0.144347 -6.887857 -9.359619 17.215413 -3.111242 -29.386383 -15.160817 -0.101034 0.000000 0.003456 -3.354019 3.060998 0.265096 -0.017711 0.000000 -0.337939 13.151871 -1.963725 -0.466322 -12.248408 0.923027 0.614431 -4.605933 30.855970 20.446846 
0.051165 0.009953 0.698636 -0.000000 0.000000 -4.766554 -0.000000 -0.000000 0.000000 -8.350098 2.663192 0.335322 9.999762 -0.069488 -0.565835 -0.000000 0.031259 0.254585 11.876470 -4.605902 0.437838 -0.000000 0.003353 0.192079 1.390762 0.000000 -0.000001 -0.000000 0.031259 0.254585 -2.640002 0.007466 0.324083 0.165513 -0.000000 0.000000 28.522720 73.471614 -37.589198 0.256711 0.000110 0.000915 2.657773 10.265975 -28.744503 -0.000000 0.031259 0.254585 -2.590648 0.007191 0.318036 -0.165513 0.000000 -0.000000 13.399354 -75.226119 17.354672 -0.253497 0.000110 0.000915 1.076909 -6.674971 18.057658 0.000000 0.000000 0.000000 1.990446 -0.000000 0.000014 0.000000 0.000000 0.000000 1.990445 -0.000000 0.000001 0.101032 -0.000000 -0.003511 -1.393870 5.450193 -0.006721 0.017024 0.000000 -0.324839 9.574965 3.754314 0.188752 -6.791197 -9.302900 17.160628 -2.928099 -29.049638 -15.038753 -0.101032 -0.000000 0.003511 -3.403546 3.098257 0.270114 -0.017711 0.000000 -0.337939 13.071228 -2.073604 -0.450856 -12.159108 1.042997 0.380498 -4.452860 30.736855 20.505244 
0.051006 0.010314 0.698538 -0.000000 0.000000 -4.698062 -0.000000 0.000000 -0.000000 -8.309308 2.661886 0.334194 9.999884 -0.045263 -0.368504 -0.000000 0.031259 0.254585 11.368815 -4.720182 0.439843 -0.000000 0.003353 0.192079 1.897178 -0.000000 -0.000000 -0.000000 0.031259 0.254585 -2.586337 0.007165 0.317451 0.165513 0.000000 -0.000000 28.703313 73.810105 -37.605659 0.256711 0.000110 0.000915 2.658746 10.285135 -28.696794 -0.000000 0.031259 0.254585 -2.536982 0.006895 0.311390 -0.165513 -0.000000 0.000000 13.070651 -74.876536 17.037251 -0.253497 0.000110 0.000915 1.227234 -7.424257 18.345147 0.000000 0.000000 0.000000 2.075426 -0.000000 0.000015 0.000000 0.000000 0.000000 2.075425 -0.000000 0.000000 0.101027 0.000000 -0.003661 -1.218832 5.677039 -0.003452 0.017024 -0.000000 -0.324839 9.171967 3.252678 0.221067 -6.528044 -9.201901 17.114328 -2.781850 -28.832260 -14.988304 -0.101027 -0.000000 0.003661 -3.389542 3.102372 0.269123 -0.017711 0.000000 -0.337939 12.996008 -2.125695 -0.442310 -11.996233 1.161370 0.134424 -4.438868 30.796585 20.609413 
0.050578 0.010652 0.698469 -0.000000 0.000000 -4.550859 -0.000000 -0.000000 -0.000000 -8.282947 2.685838 0.336576 9.999994 -0.032458 -0.264139 0.000000 0.031259 0.254585 10.896983 -4.850848 0.778434 0.000000 0.003353 0.192079 2.520119 -0.000000 -0.000003 0.000000 0.031259 0.254585 -2.558651 0.007012 0.313999 0.165513 0.000000 0.000000 28.860992 74.282815 -37.507871 0.256711 0.000110 0.000915 2.672465 10.382219 -28.553510 0.000000 0.031259 0.254585 -2.509255 0.006745 0.307960 -0.165513 -0.000000 -0.000000 12.635744 -74.600030 16.555873 -0.253497 0.000110 0.000915 1.374286 -8.114234 18.684775 -0.000000 -0.000000 -0.000000 2.167375 -0.000000 0.000025 -0.000000 -0.000000 -0.000000 2.167374 -0.000000 0.000000 0.101021 0.000000 -0.003823 -1.083460 5.754808 -0.002329 0.017024 -0.000000 -0.324839 8.828201 2.977552 0.234002 -6.310519 -9.076965 16.994095 -2.679503 -28.694806 -14.966437 -0.101021 -0.000000 0.003823 -3.320039 3.046438 0.261988 -0.017711 0.000000 -0.337939 12.918821 -2.117517 -0.440585 -11.968898 1.311830 -0.144479 -4.571708 30.933097 20.605818 
0.049796 0.010945 0.698493 -0.000000 0.000000 -4.400214 -0.000000 -0.000000 0.000000 -8.308391 2.693552 0.338149 9.999959 -0.010013 -0.081626 -0.000000 0.031259 0.254585 10.537776 -4.873860 1.131123 0.000000 0.003353 0.192079 3.038471 0.000000 0.000002 -0.000000 0.031259 0.254585 -2.525240 0.006831 0.309963 0.165513 0.000000 -0.000000 29.233886 74.579239 -37.790108 0.256711 0.000110 0.000915 2.676640 10.837424 -27.285844 -0.000000 0.031259 0.254585 -2.475887 0.006566 0.303902 -0.165513 -0.000000 -0.000000 12.322792 -74.490829 16.180529 -0.253497 0.000110 0.000915 1.456051 -8.541248 18.734876 -0.000000 -0.000000 0.000000 2.228565 -0.000000 0.000003 -0.000000 -0.000000 0.000000 2.228564 -0.000000 -0.000000 0.101017 0.000000 -0.003931 -0.945798 5.738167 -0.002172 0.017024 0.000000 -0.324839 8.523445 2.841470 0.236040 -6.271539 -8.972057 16.810327 -2.641107 -28.560276 -14.886959 -0.101017 0.000000 0.003931 -3.215766 2.908952 0.249916 -0.017711 0.000000 -0.337939 12.824969 -2.047615 -0.445210 -12.149922 1.493774 -0.437777 -4.769976 31.060340 20.493052 
0.048694 0.011086 0.698442 -0.000000 0.000000 -4.271617 0.000000 -0.000000 -0.000000 -8.428179 2.665182 0.337416 9.999823 0.050857 0.414246 0.000000 0.031259 0.254585 10.419442 -4.779637 1.132263 0.000000 0.003353 0.192079 3.265764 -0.000000 0.000001 0.000000 0.031259 0.254585 -2.469446 0.006532 0.303123 0.165513 -0.000000 -0.000000 29.944301 74.561357 -38.691065 0.256711 0.000110 0.000915 2.572805 11.575110 -24.348685 0.000000 0.031259 0.254585 -2.420050 0.006273 0.297039 -0.165513 -0.000000 -0.000000 12.111705 -74.453454 15.916226 -0.253497 0.000110 0.000915 1.494965 -8.850763 18.493121 -0.000000 -0.000000 -0.000000 2.263454 -0.000000 -0.000006 -0.000000 -0.000000 -0.000000 2.263488 -0.000000 0.000000 0.101014 -0.000000 -0.003993 -0.745112 5.703978 -0.001934 0.017024 0.000000 -0.324839 8.182374 2.743257 0.233590 -6.364781 -8.909221 16.634280 -2.678419 -28.444164 -14.751843 -0.101014 0.000000 0.003993 -3.100180 2.708013 0.235516 -0.017711 0.000000 -0.337939 12.716616 -1.945416 -0.452798 -12.406584 1.702004 -0.760018 -4.915446 31.133655 20.381723 
0.047219 0.011086 0.698002 -0.000000 0.000000 -4.026179 -0.000000 -0.000000 0.000000 -8.639407 2.654319 0.341015 9.998583 0.145346 1.184012 0.000000 0.031259 0.254585 10.608133 -4.704927 0.651788 -0.000000 0.003353 0.192079 3.201958 -0.000000 -0.000000 0.000000 0.031259 0.254585 -2.438066 0.006369 0.299349 0.165513 -0.000000 0.000000 30.647011 74.426871 -39.657489 0.256711 0.000110 0.000915 2.317060 12.100798 -20.731777 0.000000 0.031259 0.254585 -2.388755 0.006112 0.293227 -0.165513 -0.000000 0.000000 12.027218 -74.270739 15.857324 -0.253497 0.000110 0.000915 1.556390 -9.297493 18.241318 0.000000 0.000000 0.000000 2.325527 -0.000000 0.000005 0.000000 0.000000 0.000000 2.325526 -0.000000 0.000000 0.101010 0.000000 -0.004102 -0.522277 5.596171 -0.001849 0.017024 0.000000 -0.324839 7.836330 2.765434 0.222160 -6.414074 -8.843607 16.477907 -2.752267 -28.471162 -14.704803 -0.101010 -0.000000 0.004102 -2.960289 2.493121 0.219357 -0.017711 0.000000 -0.337939 12.579979 -1.875850 -0.455555 -12.547517 1.981036 -1.230703 -4.971351 31.123205 20.283910 
